<svg width="35" height="35" viewBox="0 0 35 35" fill="none" xmlns="http://www.w3.org/2000/svg">
<rect width="35" height="35" rx="5" fill="#6FB93E"/>
<path d="M27.5062 13.1949C27.303 12.9907 27.0321 12.874 26.7515 12.874C26.4613 12.874 26.1903 12.9907 25.9968 13.1949L18.6435 20.5844C18.4403 20.7886 18.3242 21.0609 18.3242 21.3526C18.3242 21.6442 18.4403 21.9165 18.6435 22.111C18.8467 22.3152 19.1176 22.4318 19.3982 22.4318C19.6884 22.4318 19.9593 22.3152 20.1529 22.111L27.5062 14.7214C27.9319 14.3033 27.9319 13.6227 27.5062 13.1949Z" fill="white"/>
<path d="M25.9872 8.61578C25.784 8.4116 25.513 8.29492 25.2325 8.29492C24.9422 8.29492 24.6713 8.4116 24.4778 8.61578L18.6435 14.4788C18.4403 14.683 18.3242 14.9552 18.3242 15.2469C18.3242 15.5386 18.4403 15.8109 18.6435 16.0053C18.8467 16.2095 19.1176 16.3262 19.3982 16.3262C19.6884 16.3262 19.9593 16.2095 20.1529 16.0053L25.9872 10.1423C26.1903 9.93812 26.3064 9.66587 26.3064 9.37418C26.2968 9.09221 26.1903 8.81997 25.9872 8.61578Z" fill="white"/>
<path d="M22.0493 6.46641C21.8461 6.26223 21.5752 6.15527 21.2849 6.15527C20.9946 6.15527 20.7237 6.27195 20.5302 6.46641L18.6435 8.36241C18.4403 8.5666 18.3242 8.83884 18.3242 9.13054C18.3242 9.42223 18.4403 9.69449 18.6435 9.88894C18.8467 10.0931 19.1176 10.2098 19.3982 10.2098C19.6884 10.2098 19.9593 10.0931 20.1529 9.88894L22.0396 7.99293C22.4653 7.57484 22.4653 6.88451 22.0493 6.46641Z" fill="white"/>
<path d="M16.1667 27.2255C16.1667 28.6645 15.0056 29.8215 13.5833 29.8215C12.1514 29.8215 11 28.6548 11 27.2255V8.59606C11 7.15705 12.1611 6 13.5833 6C15.0153 6 16.1667 7.16677 16.1667 8.59606V27.2255Z" fill="white"/>
</svg>
